<svg width="123" height="80" viewBox="0 0 123 80" fill="none" xmlns="http://www.w3.org/2000/svg">
<g id="Logo" opacity="0.65" clip-path="url(#clip0_289_339)">
<path id="Vector" d="M115.14 9.83371C115.14 9.92698 115.14 10.0436 115.117 10.1135C115.002 11.023 115.002 11.9325 115.071 12.8653C115.117 13.0985 115.163 13.3317 115.347 13.5183C115.647 13.868 116.108 13.7981 116.292 13.3783C116.385 13.1685 116.385 12.9586 116.339 12.7487C116.108 11.8625 116.062 10.9297 116.039 10.0203C116.039 9.97362 116.039 9.90365 116.039 9.83371C116.292 9.81038 116.523 9.78705 116.73 9.78705C116.892 9.76374 117.03 9.74042 117.145 9.67045C117.491 9.48391 117.491 9.08747 117.122 8.90091C116.984 8.83094 116.8 8.80762 116.638 8.80762C116.062 8.83094 115.486 8.83094 114.909 8.83094C114.702 8.83094 114.495 8.85427 114.287 8.87758C114.172 8.90091 114.034 8.90091 113.941 8.97087C113.78 9.04082 113.688 9.15742 113.688 9.32065C113.711 9.48391 113.78 9.57718 113.941 9.64714C114.034 9.71711 114.149 9.74042 114.264 9.74042C114.541 9.76374 114.84 9.81038 115.14 9.83371ZM121.479 10.9064C121.479 10.9297 121.502 10.9531 121.502 10.9531C121.594 11.5827 121.686 12.189 121.755 12.7953C121.778 13.0052 121.801 13.1918 121.94 13.355C122.239 13.7514 122.7 13.7048 122.908 13.2851C123 13.0752 123.023 12.8653 122.977 12.6321C122.839 11.9325 122.769 11.2329 122.631 10.5566C122.539 10.1369 122.424 9.74042 122.309 9.36731C122.239 9.13411 122.078 8.97085 121.801 8.94754C121.525 8.90091 121.317 9.04082 121.202 9.25071C121.064 9.43725 120.949 9.62382 120.856 9.83371C120.695 10.2068 120.557 10.5799 120.372 10.9297C120.349 11.023 120.326 11.093 120.28 11.1629C120.257 11.1163 120.234 11.093 120.234 11.093C119.934 10.51 119.658 9.92698 119.358 9.36731C119.312 9.32065 119.289 9.27402 119.266 9.22738C119.128 9.01751 118.966 8.90091 118.713 8.90091C118.482 8.92422 118.298 9.06414 118.183 9.27402C118.136 9.36731 118.136 9.43725 118.113 9.53054C118.021 10.2768 117.906 11.023 117.814 11.7693C117.768 12.189 117.745 12.6088 117.745 13.0285C117.722 13.1218 117.745 13.2384 117.791 13.3317C117.837 13.5182 117.975 13.6349 118.159 13.6582C118.39 13.6815 118.551 13.6115 118.621 13.425C118.69 13.2851 118.713 13.1685 118.736 13.0519C118.828 12.6321 118.897 12.2357 118.966 11.8392C119.012 11.606 119.035 11.4195 119.105 11.1629C119.151 11.2562 119.197 11.3262 119.243 11.3961C119.45 11.676 119.658 11.9558 119.911 12.189C120.165 12.3756 120.372 12.3523 120.58 12.1424C120.626 12.0957 120.649 12.0724 120.695 12.0258C120.903 11.6993 121.156 11.3728 121.363 11.0463C121.41 10.9997 121.433 10.9531 121.479 10.9064Z" fill="#A5A5A5"/>
<path id="Vector_2" d="M68.3681 10.2919C68.2078 10.7351 68.1772 11.0543 68.2512 11.3197C68.3329 11.6806 68.545 11.7987 68.8328 11.707C71.5402 11.0296 77.4771 12.9522 79.6751 13.488C80.1935 13.6005 80.6152 12.9235 80.2615 12.3165C79.7452 11.7287 73.811 9.21205 71.5467 9.07483C70.6592 9.02409 69.0725 8.79383 68.3681 10.2919Z" fill="#A5A5A5"/>
<path id="Vector_3" d="M91.5704 2.14511C91.859 2.3136 92.0203 2.47433 92.0999 2.65391C92.2185 2.88947 92.1559 3.05246 91.9567 3.13562C90.167 4.01929 87.7856 7.82368 86.8242 9.13577C86.5912 9.4376 86.0537 9.2622 85.9725 8.76584C85.9892 8.2046 88.1003 4.076 89.2784 2.95151C89.7414 2.51247 90.5063 1.65103 91.5704 2.14511Z" fill="#A5A5A5"/>
<path id="Vector_4" d="M77.3183 0.272356C77.665 0.00803433 78.0252 -0.084592 78.2092 0.087184C80.9094 2.42345 82.3413 6.12314 83.228 9.51013C83.2613 9.58904 83.2634 9.70227 83.2367 9.8204C83.2257 9.92136 83.1528 10.028 83.037 10.1105C82.9133 10.2017 82.8068 10.2294 82.7567 10.1509C81.5733 8.5224 74.8141 2.18622 77.3183 0.272356Z" fill="#A5A5A5"/>
<path id="Vector_5" d="M20.1386 40.7774C20.7858 40.29 21.4893 39.8842 22.2338 39.5692C23.0128 39.344 23.843 39.3812 24.5991 39.6758C25.355 39.9703 25.9959 40.5058 26.4243 41.2014C26.8075 41.8952 26.9574 42.6963 26.8516 43.484C26.7458 44.2714 26.39 45.0029 25.8375 45.5682C25.4093 46.0263 24.9231 46.4254 24.3919 46.7552C22.0244 48.3027 19.6357 49.7652 17.2472 51.3127C16.7584 51.7 16.2399 52.0474 15.6967 52.3514C14.8704 52.7683 13.926 52.88 13.0269 52.6671C12.1278 52.4543 11.3305 51.9301 10.7729 51.1856C10.356 50.6583 10.0043 50.0818 9.72527 49.4685C7.46242 44.6567 5.11578 39.866 2.93673 34.9692C1.93101 32.8496 1.11388 30.4118 0.317688 28.0589C-0.0267799 27.3752 -0.0940467 26.5827 0.130211 25.8496C0.354468 25.1165 0.852556 24.5009 1.51852 24.1336C2.1845 23.7663 2.96579 23.6765 3.69627 23.8831C4.42675 24.0896 5.04878 24.5763 5.43004 25.2396C6.60197 26.8152 7.63937 28.4889 8.53099 30.2423C10.7938 34.4818 12.9519 38.7212 15.131 42.8336C15.2579 43.0609 15.3978 43.2802 15.55 43.4907C17.1901 42.7931 18.7327 41.8809 20.1386 40.7774Z" fill="#A5A5A5"/>
<path id="Vector_6" d="M43.5352 39.2986C38.3601 45.4246 29.6857 43.8771 25.3277 35.9917C22.2267 30.3955 21.6819 21.1533 28.4287 15.324C29.8694 14.1036 31.5921 13.2722 33.4362 12.9074C35.6973 12.5795 38.003 12.9831 40.0237 14.0605C42.0444 15.1379 43.6768 16.834 44.6877 18.9064C48.3752 25.6897 47.8514 34.3382 43.5352 39.2986ZM41.44 25.0113C40.8902 23.3444 39.7872 21.9213 38.3181 20.9837C37.4868 20.3842 36.4766 20.0928 35.4578 20.1584C34.4388 20.224 33.4734 20.6428 32.7238 21.344C29.7277 24.0362 29.099 30.4168 31.2781 34.2111C31.5559 34.8299 31.9637 35.3797 32.4734 35.8222C32.9832 36.2648 33.5824 36.5893 34.229 36.7729C34.8756 36.9568 35.5541 36.9953 36.217 36.886C36.88 36.7766 37.5112 36.522 38.0668 36.14C39.6909 34.866 40.8824 33.1119 41.4757 31.1213C42.069 29.1306 42.0346 27.0024 41.3773 25.0326L41.44 25.0113Z" fill="#A5A5A5"/>
<path id="Vector_7" d="M64.655 27.6821C64.1252 27.7974 63.5778 27.8043 63.0452 27.7023C62.5128 27.6003 62.0057 27.3918 61.5541 27.0887C61.1589 26.86 60.8188 26.5456 60.558 26.168C60.2974 25.7903 60.1228 25.359 60.0467 24.9049C59.9704 24.4509 59.9948 23.9854 60.1177 23.542C60.2407 23.0985 60.4594 22.6881 60.758 22.3403C61.2781 21.6414 62.0164 21.141 62.8532 20.9201C65.0378 20.2787 67.2868 19.8876 69.5579 19.7543C70.0569 19.6956 70.5625 19.7383 71.0448 19.88C71.5273 20.0218 71.9768 20.2594 72.3672 20.5794C72.7575 20.8992 73.0808 21.2949 73.318 21.7429C73.5551 22.1909 73.7014 22.6823 73.7484 23.1883C74.4031 25.6738 74.4748 28.2798 73.9578 30.7983C72.0722 38.9381 65.5769 41.7361 58.2855 39.1289C56.2388 38.4318 54.4442 37.1329 53.1313 35.3981C51.3801 33.309 50.1385 30.8332 49.5064 28.1698C48.9944 25.798 49.0505 23.3369 49.6702 20.9916C50.2898 18.6463 51.4549 16.485 53.0684 14.688C54.5995 12.735 56.5869 11.198 58.8513 10.2153C60.2821 9.41743 61.9565 9.19056 63.5446 9.57941C63.9048 9.68029 64.2318 9.87683 64.4917 10.1487C64.7516 10.4205 64.9349 10.7577 65.0226 11.1254C65.1102 11.493 65.099 11.8777 64.9902 12.2395C64.8813 12.6013 64.6789 12.9271 64.4037 13.183C63.8804 13.6622 63.312 14.0882 62.7065 14.4549C60.8437 15.655 59.2227 17.2014 57.9293 19.0123C57.0815 20.1841 56.4976 21.5298 56.2189 22.9543C55.9401 24.3789 55.9733 25.848 56.3161 27.2583C56.7912 29.1812 57.8457 30.9072 59.3331 32.1972C63.9426 36.4369 69.935 32.3456 68.8874 26.5587C67.358 26.9403 66.0169 27.343 64.655 27.6821Z" fill="#A5A5A5"/>
<path id="Vector_8" d="M92.8152 39.6376C86.0058 43.8773 78.2534 39.6376 76.5562 30.7347C75.3201 24.3754 77.6667 15.4724 85.8801 12.0808C87.6276 11.3747 89.5231 11.1268 91.3905 11.36C93.6342 11.7756 95.6926 12.8931 97.275 14.555C98.8575 16.217 99.8848 18.3394 100.211 20.6234C101.594 28.1909 98.4515 36.2673 92.8152 39.6376ZM95.183 25.3716C95.1809 23.6107 94.5652 21.9067 93.4439 20.5598C92.8446 19.7267 91.9781 19.1298 90.9924 18.8707C90.0064 18.6118 88.9625 18.7067 88.0381 19.1396C84.3506 20.7505 81.7524 26.6011 82.6953 30.9044C82.7674 31.5796 82.9842 32.2309 83.3309 32.8125C83.6776 33.3942 84.1457 33.8922 84.7025 34.2718C85.2592 34.6513 85.8912 34.9033 86.5542 35.01C87.2173 35.1165 87.8954 35.0754 88.541 34.8894C90.4902 34.2005 92.1779 32.9131 93.3686 31.2067C94.5594 29.5004 95.1937 27.4604 95.183 25.3716Z" fill="#A5A5A5"/>
<path id="Vector_9" d="M107.098 41.4184C106.995 42.1942 106.592 42.8969 105.977 43.372C105.362 43.8469 104.586 44.0555 103.819 43.9515C103.052 43.8475 102.357 43.4395 101.888 42.8173C101.418 42.1953 101.212 41.4098 101.315 40.634C101.418 39.8582 101.821 39.1555 102.436 38.6804C103.051 38.2053 103.827 37.9969 104.594 38.1009C105.361 38.2049 106.055 38.6127 106.525 39.2349C106.995 39.8571 107.201 40.6425 107.098 41.4184ZM105.275 12.8227C105.673 12.2069 106.258 11.7381 106.941 11.4859C107.625 11.2338 108.371 11.2119 109.067 11.4236C109.776 11.6029 110.401 12.0229 110.84 12.6134C111.279 13.2038 111.503 13.9288 111.477 14.6669C111.384 15.8508 111.209 17.0267 110.953 18.1856C110.262 22.1073 109.591 26.0287 108.858 29.908C108.523 31.4555 108.083 32.9393 107.601 34.5078C107.433 34.9982 107.153 35.4413 106.784 35.8009C106.554 36.0715 106.261 36.2789 105.931 36.4042C105.601 36.5296 105.245 36.5687 104.896 36.518C104.547 36.4673 104.217 36.3284 103.935 36.1142C103.653 35.8998 103.429 35.6171 103.285 35.2922C103.035 34.7093 102.9 34.0829 102.886 33.448C102.886 30.8195 102.886 28.1698 103.054 25.52C103.339 21.7385 103.899 17.9834 104.73 14.2853C104.828 13.7899 105.012 13.3161 105.275 12.8863V12.8227Z" fill="#A5A5A5"/>
<path id="Vector_10" fill-rule="evenodd" clip-rule="evenodd" d="M11.2863 58.4523C11.0389 59.0111 10.9711 59.634 11.092 60.2334C11.1724 61.0236 11.349 61.8009 11.6179 62.5474C11.9535 63.4616 12.3291 64.3656 12.7922 65.4798C12.8987 65.7362 13.01 66.0038 13.1265 66.2854C13.751 67.7949 14.5346 69.724 15.5799 72.5158C15.8757 73.3089 16.1384 74.1085 16.403 74.9136C16.5098 75.2389 16.6171 75.5652 16.7269 75.8923C17.1204 77.0552 17.7975 78.1 18.6951 78.928C19.0762 79.3831 19.5817 79.7147 20.1486 79.8805C20.7265 80.0496 21.3412 80.0389 21.9129 79.8498C22.4847 79.6605 22.9869 79.3016 23.3543 78.8196C23.7145 78.3471 23.9287 77.7776 23.9704 77.1827C24.2041 76.0238 24.1243 74.8222 23.7391 73.7049C23.1278 71.8498 22.4315 69.992 21.6285 68.1749L21.6248 68.1669C20.3038 65.324 18.9609 62.5007 17.5546 59.6763L17.5441 59.6565C17.1324 58.9207 16.5973 58.2629 15.963 57.7127C15.5512 57.2216 14.9832 56.8903 14.3559 56.7762C13.7152 56.6596 13.0545 56.7771 12.4916 57.1078C11.9591 57.4154 11.537 57.8862 11.2863 58.4523Z" fill="#A5A5A5"/>
<path id="Vector_11" fill-rule="evenodd" clip-rule="evenodd" d="M31.4629 51.4519C29.3915 50.9092 27.2283 50.8301 25.124 51.2203C23.494 51.3826 21.891 51.763 20.7778 52.5165C20.2117 52.8999 19.754 53.3923 19.4993 54.0181C19.2433 54.6474 19.2106 55.367 19.4205 56.1688C19.8035 57.6376 20.301 59.0656 20.7966 60.489L20.8769 60.7196L20.8789 60.7247C22.3714 64.8599 23.8781 68.9812 25.3986 73.0883C25.5759 73.7356 25.8266 74.3599 26.1457 74.9488L26.1517 74.9597C26.5732 75.6914 27.1139 76.3457 27.7509 76.8954C28.0695 77.1976 28.4634 77.4067 28.8906 77.5001C29.3219 77.5943 29.7705 77.567 30.1875 77.4208C30.6047 77.2748 30.974 77.0157 31.2555 76.6717C31.5324 76.3334 31.7138 75.9257 31.7804 75.4919C32.0552 74.3134 31.9672 73.0779 31.5279 71.9514C31.3908 71.5723 31.2833 71.1848 31.1699 70.777C31.1322 70.641 31.0939 70.5027 31.0534 70.3617C34.5338 68.9854 38.237 67.1346 39.5392 62.8292C40.0491 61.3414 40.0917 59.7303 39.6608 58.2168C39.2296 56.7017 38.3449 55.3588 37.1286 54.373C35.4732 52.993 33.5394 51.9959 31.4629 51.4519ZM25.7214 56.7328C25.7899 56.7128 25.859 56.6943 25.9282 56.677C28.194 56.3166 30.5122 56.7968 32.456 58.0288C33.3126 58.6316 33.6635 59.3012 33.7238 59.9456C33.786 60.609 33.5475 61.3279 33.0685 62.019C32.1634 63.3245 30.5117 64.3694 29.0197 64.5641C27.9321 62.0299 26.8275 59.3932 25.7214 56.7328Z" fill="#A5A5A5"/>
<path id="Vector_12" d="M45.272 46.8133C47.7387 45.6607 50.7942 45.4616 53.1852 46.272C53.7873 46.4494 54.3097 46.8333 54.6631 47.3578C55.0142 47.8791 55.1762 48.5073 55.1221 49.1353C55.1185 49.5429 55.0196 49.944 54.8335 50.3058C54.6441 50.6742 54.3698 50.9909 54.0339 51.2294C53.6979 51.4678 53.3101 51.6211 52.9033 51.6758C52.4964 51.7307 52.0826 51.6856 51.6965 51.5443L51.6672 51.5336L51.6396 51.5189C51.4421 51.4143 51.2323 51.3356 51.0153 51.2843L51.0016 51.2813C49.3196 50.8293 47.7331 51.5782 47.1536 52.4983C46.8772 52.9371 46.8429 53.38 47.0731 53.7829C47.3196 54.2143 47.9243 54.6985 49.1478 55.0436C49.4843 55.1371 49.8292 55.2273 50.179 55.3189C51.1465 55.5723 52.152 55.8356 53.1242 56.2005L53.1279 56.202C57.6132 57.9285 59.2833 61.5043 58.7116 64.8676C58.1459 68.1936 55.4004 71.2205 51.2716 71.9345C49.7693 72.2714 48.2058 72.2058 46.7359 71.7442C45.2624 71.2811 43.9342 70.4362 42.8832 69.2929L42.8558 69.2631C42.5241 68.8323 42.3009 68.3263 42.202 67.7894C42.1109 67.3049 42.1589 66.8042 42.3399 66.3462C42.5198 65.8909 42.8242 65.4969 43.2169 65.2098C43.6318 64.8843 44.1318 64.6891 44.6553 64.6483C45.177 64.6078 45.699 64.7225 46.1571 64.9782C46.6147 65.2018 47.0403 65.4871 47.4223 65.8263L47.4295 65.8325C48.1053 66.4578 48.9229 66.6207 49.7069 66.4698C50.5024 66.3167 51.2504 65.8405 51.7315 65.2087C52.2094 64.5809 52.4013 63.8351 52.1736 63.1111C51.9444 62.3818 51.2555 61.5647 49.7417 60.8816C49.346 60.7116 48.9357 60.5745 48.5089 60.4411C48.3938 60.4051 48.2768 60.3693 48.1583 60.3329C47.8427 60.236 47.518 60.1362 47.1996 60.0262C46.9803 59.9505 46.7628 59.8789 46.5474 59.8078C45.9586 59.6138 45.3845 59.4247 44.8321 59.1711C43.6296 58.7569 42.5908 57.9616 41.8702 56.9029C41.1466 55.84 40.7825 54.5689 40.8321 53.2794C40.836 50.1371 42.7922 47.9722 45.272 46.8133Z" fill="#A5A5A5"/>
<path id="Vector_13" d="M76.5445 46.4785C76.0662 46.2422 75.5373 46.13 75.0056 46.152C74.4737 46.1742 73.9557 46.3298 73.4984 46.6053C73.0438 46.8787 72.6632 47.2616 72.3905 47.72C72.1404 48.106 71.9674 48.5376 71.8811 48.9909C71.7948 49.4438 71.7969 49.9093 71.8871 50.3611C71.9761 50.9418 72.0749 51.5065 72.1724 52.0635C72.3339 52.9851 72.491 53.886 72.5947 54.8045L72.5985 54.8278C72.8345 56.2684 72.958 57.7253 72.9691 59.1853L72.9702 59.206C73.0508 60.7827 72.5198 62.3287 71.491 63.516L71.4747 63.5371C71.1399 63.9711 70.6924 64.3024 70.1819 64.4938C69.6717 64.6853 69.1189 64.7293 68.5852 64.6209C68.0516 64.5125 67.5583 64.2562 67.1605 63.8804C66.7627 63.5045 66.4758 63.0227 66.3326 62.4916C66.0268 61.3722 65.8499 60.2207 65.8049 59.0604L66.3271 50.6489C66.3348 50.5391 66.3436 50.4264 66.3526 50.3125C66.3724 50.0571 66.3928 49.7969 66.4013 49.5542C66.4136 49.1971 66.403 48.8298 66.3208 48.4822C66.2366 48.1269 66.0765 47.7889 65.7926 47.5011C65.5114 47.2162 65.1319 47.006 64.6543 46.8629C63.7907 46.61 63.0604 46.618 62.4519 46.8793C61.8431 47.1405 61.4259 47.6256 61.1307 48.186C60.8378 48.7416 60.6496 49.3995 60.5073 50.0584C60.4017 50.5473 60.3168 51.0605 60.2362 51.5491C60.2082 51.7175 60.181 51.8827 60.1534 52.0433L60.1527 52.048C59.7211 54.7273 59.5927 57.4476 59.7698 60.1564C59.8028 61.6202 60.1045 63.0651 60.6598 64.4173C61.2862 66.162 62.4208 67.6736 63.9138 68.7527C65.4101 69.834 67.1955 70.4298 69.0338 70.4613C70.8721 70.4927 72.6765 69.9584 74.2081 68.9291C75.7371 67.9013 76.9221 66.4282 77.6064 64.7047C78.5635 62.5093 79.013 60.1216 78.9202 57.7238C78.864 55.9733 78.7698 54.2093 78.6761 52.4542C78.6301 51.5933 78.5842 50.7342 78.5431 49.8804C78.5224 49.0242 78.2433 48.1949 77.7433 47.5038C77.4338 47.0669 77.022 46.7145 76.5445 46.4785Z" fill="#A5A5A5"/>
<path id="Vector_14" d="M93.4731 59.6678C93.4246 59.7301 93.3735 59.7947 93.3201 59.8618C92.931 57.5912 92.5705 55.3214 92.2094 53.0481C92.0799 52.2325 91.9497 51.4134 91.8188 50.5967L91.804 50.5056L91.7562 50.4269C91.6661 50.2787 91.6571 50.1334 91.6571 49.8236V49.7878L91.6516 49.7523C91.5539 49.1125 91.2679 48.517 90.8309 48.0439C90.3951 47.5721 89.8291 47.2438 89.2066 47.1012C88.5851 46.9461 87.9319 46.9803 87.3294 47.1996C86.7285 47.4183 86.2047 47.8114 85.8234 48.3296C85.5064 48.7272 85.2465 49.1683 85.0518 49.6396C84.6099 50.6549 84.1641 51.6727 83.7171 52.6932L83.7094 52.7108C82.5934 55.2587 81.4699 57.8236 80.3791 60.4087L80.3757 60.417C79.7061 62.0932 79.1533 63.8594 78.6024 65.6201C78.4924 65.9716 78.3824 66.3228 78.2715 66.6732C78.0726 67.2288 77.9857 67.819 78.0155 68.409C77.9793 68.9372 78.1043 69.4641 78.3738 69.9185C78.6486 70.3821 79.0603 70.7468 79.5507 70.9616C80.0705 71.1921 80.6516 71.241 81.2021 71.1007C81.7514 70.9605 82.2392 70.6398 82.5887 70.1889C83.035 69.6334 83.4189 69.0276 83.732 68.3858C84.6561 66.4734 85.5392 64.5378 86.4183 62.6105C86.7585 61.865 87.0891 61.1974 87.4651 60.4703C87.4909 60.5599 87.5173 60.6474 87.5445 60.735C87.9386 62.4905 88.6039 64.1719 89.5157 65.7178C89.6882 66.0452 89.9286 66.3314 90.2203 66.5567C90.5155 66.7847 90.8562 66.9447 91.2187 67.0259C91.5812 67.1072 91.9569 67.1076 92.3195 67.027C92.6817 66.9467 93.0234 66.7865 93.3188 66.5596L93.9034 66.1168L98.4409 62.2501L98.1726 63.9801C97.8043 66.3581 97.4388 68.7163 97.0505 71.075C96.7964 72.1205 96.7967 73.2125 97.0515 74.2576C97.1619 74.8458 97.443 75.3872 97.8591 75.813C98.2787 76.2423 98.816 76.5339 99.4015 76.6503C99.987 76.7665 100.594 76.7021 101.142 76.4652C101.683 76.2319 102.143 75.8418 102.465 75.3445C103.213 74.4054 103.679 73.2685 103.806 72.069C103.999 70.3752 104.217 68.6583 104.434 66.9419C104.685 64.9636 104.936 62.9858 105.148 61.0459L105.148 61.0399C105.352 58.9165 105.451 56.7843 105.444 54.6509C105.488 53.9767 105.323 53.305 104.969 52.731C104.614 52.155 104.089 51.7072 103.468 51.451C102.822 51.1539 102.099 51.0745 101.405 51.2247C100.716 51.3738 100.092 51.7414 99.6236 52.2739C98.7867 53.057 98.0016 53.895 97.2733 54.7825L97.2683 54.7885C96.4732 55.7908 95.6836 56.8128 94.899 57.8283C94.422 58.4456 93.9463 59.0614 93.4731 59.6678Z" fill="#A5A5A5"/>
</g>
<defs>
<clipPath id="clip0_289_339">
<rect width="123" height="80" fill="white"/>
</clipPath>
</defs>
</svg>
